<svg xmlns="http://www.w3.org/2000/svg" viewBox="0 0 805 357.22"><defs><style>.cls-1{fill:#e5e5e5;}</style></defs><title>logo white</title><g id="Слой_1" data-name="Слой 1"><path class="cls-1" d="M429.15,183.78c0-32-15.93-64.75-66-64.75-13.39,0-29.33,1.61-42.77,5.83-7.58,2.38-12.43,7.7-12.4,13.54l.22,41.19c10.27-7.64,24.4-18.14,44-15.67C361,165,367,168.81,369.5,178A32.18,32.18,0,0,1,365,203.87c-3.89,6-10.57,13.1-18.06,20.51C306.87,264,290.7,302.53,290.7,342.15c0,17.72,2.21,70.37,42.17,70.37,17.76,0,31.82-10.42,37.73-21.37,2.45,9.94,14.71,17.2,29,17.2l33.23.11c-2.22-12.51-3.71-24-3.71-49.52ZM370.62,344.06c0,9.91-6.68,18.94-16.3,18.94-10.35,0-12.14-19.86-12.14-21.42,0-30,15.13-71.84,28.45-83.83Z" transform="translate(-125 -119.03)"/><path class="cls-1" d="M654,183.78c0-32-15.93-64.75-66-64.75-13.39,0-29.33,1.61-42.77,5.83-7.58,2.38-12.43,7.7-12.4,13.54l.22,41.19c10.27-7.64,24.4-18.14,44-15.67,8.8,1.11,14.78,4.89,17.28,14.06a32.18,32.18,0,0,1-4.51,25.89c-3.89,6-10.57,13.1-18.06,20.51-40.05,39.58-56.22,78.15-56.22,117.77,0,17.72,2.21,70.37,42.17,70.37,17.76,0,31.82-10.42,37.73-21.37,2.45,9.94,14.71,17.2,29,17.2l33.23.11c-2.22-12.51-3.71-24-3.71-49.52ZM595.51,344.06c0,9.91-6.68,18.94-16.3,18.94-10.35,0-12.14-19.86-12.14-21.42,0-30,15.13-71.84,28.45-83.83Z" transform="translate(-125 -119.03)"/><path class="cls-1" d="M505.4,119H483.34c-21.67,0-40.06,4.58-40.06,24.22,0,5.12,0,36.77,0,36.77V434.57c-.34,19.05-1.7,29.5-3.62,40.87l33-10.07a51.34,51.34,0,0,0,14-6.7c8.28-5.65,13.88-15,14.83-23.93h.23s0-273.28,0-273.51C502.44,132.88,504.3,125.62,505.4,119Z" transform="translate(-125 -119.03)"/><path class="cls-1" d="M883.38,119.23c-20.27,0-40.82,4.29-58.76,19.88C814.18,126.63,805.51,119,779.85,119a82.82,82.82,0,0,0-53.6,19.51l0,.08v-.07c-2.45-9.94-14.75-19.41-29.08-19.41L663.91,119c2.17,12.23,3.63,23.49,3.7,47.84l.15,229.65v38.22h0c-.32,19.47-1.69,30-3.64,41.51l33-10.07a51.34,51.34,0,0,0,14-6.7c8.53-5.82,14.2-15.52,14.89-24.74h.19V408.59h0V183.91c0-9.91,12.74-20.11,25.4-20.12,11.26,0,17.78,8.13,17.78,19.07V363.13c-.19,22-1.62,33.11-3.68,45.34l33-10.07a51.35,51.35,0,0,0,14-6.7c9.1-6.21,15-16.85,15-26.59v-2.17h0V183.49c-.18-7.66,10.85-19.7,25.43-19.69,11.48,0,18.46,9.11,18.46,20.05V358.16c0,25.31-1.49,37.18-3.71,50.31l33-10.07a51.35,51.35,0,0,0,14-6.7c9.11-6.21,15-16.85,15-26.59V174.84C930,151.34,922.53,119.23,883.38,119.23Z" transform="translate(-125 -119.03)"/><path class="cls-1" d="M247.42,119.14c-13.92,0-25.89,8.94-28.82,18.56l-.11.12c-7.14-8-22-18.79-44.11-18.79-43,0-49.38,37.56-49.38,55.81V356.78c.73,20.33,4.43,55.78,40.68,55.78,18.92,0,42.49-9.49,52.81-20.85v43h0a244.85,244.85,0,0,1-3.62,40.71l33-10.07a51.33,51.33,0,0,0,14-6.7c8.28-5.65,13.88-15,14.83-23.93h.2V176.06h0v-7.51c0-25.54,1.48-37,3.71-49.52ZM218.49,341.62v4.2c0,12-18,17.2-25.43,17.2s-18.46-5-18.46-16.44V185c0-9.91,5.93-19.72,18.46-20.05,11.05-.3,25.43,9.38,25.43,19.29Z" transform="translate(-125 -119.03)"/></g></svg>